<svg width="6" height="5" viewBox="0 0 6 5" fill="none" xmlns="http://www.w3.org/2000/svg">
<path d="M2.77332 4.54282C2.74926 4.51939 2.6464 4.4309 2.56179 4.34848C2.02967 3.86524 1.15869 2.60462 0.892833 1.94481C0.850113 1.84461 0.759698 1.59127 0.753891 1.45592C0.753891 1.32622 0.783753 1.20258 0.844307 1.0846C0.928916 0.93753 1.06205 0.819549 1.21924 0.754902C1.32832 0.713285 1.65473 0.648638 1.66054 0.648638C2.01764 0.583991 2.59788 0.548435 3.23908 0.548435C3.85001 0.548435 4.40661 0.583991 4.7691 0.636921C4.77491 0.642982 5.18054 0.707629 5.31948 0.778337C5.57331 0.908035 5.73091 1.16137 5.73091 1.43248V1.45592C5.72469 1.63249 5.56709 2.0038 5.56128 2.0038C5.29501 2.62805 4.46675 3.85958 3.91637 4.35454C3.91637 4.35454 3.77494 4.49393 3.6866 4.55454C3.55969 4.64908 3.4025 4.69595 3.24531 4.69595C3.06987 4.69595 2.90645 4.64302 2.77332 4.54282Z" fill="#FF4842"/>
</svg>
