<svg width="6" height="6" viewBox="0 0 6 6" fill="none" xmlns="http://www.w3.org/2000/svg">
<path d="M3.26051 1.12748C3.28456 1.15092 3.38742 1.23941 3.47203 1.32183C4.00416 1.80507 4.87514 3.06569 5.14099 3.72549C5.18371 3.8257 5.27413 4.07903 5.27994 4.21439C5.27994 4.34408 5.25007 4.46772 5.18952 4.5857C5.10491 4.73278 4.97178 4.85076 4.81458 4.9154C4.7055 4.95702 4.3791 5.02167 4.37329 5.02167C4.01619 5.08631 3.43595 5.12187 2.79474 5.12187C2.18381 5.12187 1.62722 5.08631 1.26472 5.03338C1.25892 5.02732 0.853289 4.96268 0.714348 4.89197C0.460519 4.76227 0.302914 4.50893 0.302914 4.23782V4.21439C0.309135 4.03782 0.466741 3.6665 0.472547 3.6665C0.738818 3.04225 1.56708 1.81072 2.11745 1.31577C2.11745 1.31577 2.25888 1.17637 2.34723 1.11577C2.47414 1.02122 2.63133 0.974352 2.78852 0.974352C2.96396 0.974352 3.12737 1.02728 3.26051 1.12748Z" fill="#6DD64D"/>
</svg>
